<svg data-v-423bf9ae="" xmlns="http://www.w3.org/2000/svg" viewBox="0 0 366.9461414782581 165" class="iconAbove"><!----><!----><!----><g data-v-423bf9ae="" id="4dd780aa-72b0-4508-a42a-8f7764ee92af" fill="black" transform="matrix(5.9880242347717285,0,0,5.9880242347717285,-6.0478925704956055,80.03742218017578)"><path d="M4.34 14.11L4.34 14.11Q3.35 14.11 2.59 13.71L2.59 13.71L2.59 13.71Q1.83 13.30 1.42 12.56L1.42 12.56L1.42 12.56Q1.01 11.83 1.01 10.86L1.01 10.86L1.01 7.34L1.01 7.34Q1.01 6.37 1.42 5.63L1.42 5.63L1.42 5.63Q1.83 4.90 2.59 4.49L2.59 4.49L2.59 4.49Q3.35 4.09 4.34 4.09L4.34 4.09L4.34 4.09Q5.33 4.09 6.10 4.49L6.10 4.49L6.10 4.49Q6.86 4.90 7.27 5.63L7.27 5.63L7.27 5.63Q7.69 6.37 7.69 7.34L7.69 7.34L7.69 10.86L7.69 10.86Q7.69 11.83 7.27 12.56L7.27 12.56L7.27 12.56Q6.86 13.30 6.10 13.71L6.10 13.71L6.10 13.71Q5.33 14.11 4.34 14.11L4.34 14.11ZM4.34 13.26L4.34 13.26Q5.40 13.26 6.05 12.61L6.05 12.61L6.05 12.61Q6.69 11.97 6.69 10.91L6.69 10.91L6.69 7.32L6.69 7.32Q6.69 6.26 6.05 5.61L6.05 5.61L6.05 5.61Q5.40 4.96 4.34 4.96L4.34 4.96L4.34 4.96Q3.29 4.96 2.65 5.61L2.65 5.61L2.65 5.61Q2.00 6.26 2.00 7.32L2.00 7.32L2.00 10.91L2.00 10.91Q2.00 11.97 2.65 12.61L2.65 12.61L2.65 12.61Q3.29 13.26 4.34 13.26L4.34 13.26ZM14.11 7.10L14.11 7.10Q14.11 6.92 14.29 6.92L14.29 6.92L14.92 6.92L14.92 6.92Q15.11 6.92 15.11 7.10L15.11 7.10L15.11 13.82L15.11 13.82Q15.11 14 14.92 14L14.92 14L14.29 14L14.29 14Q14.11 14 14.11 13.82L14.11 13.82L14.11 13.29L14.11 13.29Q14.11 13.24 14.08 13.23L14.08 13.23L14.08 13.23Q14.06 13.22 14.03 13.26L14.03 13.26L14.03 13.26Q13.43 14.10 12.18 14.10L12.18 14.10L12.18 14.10Q11.51 14.10 10.94 13.82L10.94 13.82L10.94 13.82Q10.37 13.55 10.04 13.03L10.04 13.03L10.04 13.03Q9.72 12.52 9.72 11.79L9.72 11.79L9.72 7.10L9.72 7.10Q9.72 6.92 9.90 6.92L9.90 6.92L10.53 6.92L10.53 6.92Q10.71 6.92 10.71 7.10L10.71 7.10L10.71 11.49L10.71 11.49Q10.71 12.29 11.16 12.76L11.16 12.76L11.16 12.76Q11.61 13.23 12.38 13.23L12.38 13.23L12.38 13.23Q13.17 13.23 13.64 12.75L13.64 12.75L13.64 12.75Q14.11 12.28 14.11 11.49L14.11 11.49L14.11 7.10ZM12.73 5.70L12.73 5.70Q12.75 5.78 12.75 5.80L12.75 5.80L12.75 5.80Q12.75 5.85 12.71 5.89L12.71 5.89L12.71 5.89Q12.67 5.92 12.60 5.92L12.60 5.92L12.11 5.92L12.11 5.92Q11.98 5.92 11.90 5.80L11.90 5.80L11.00 4.35L11.00 4.35Q10.98 4.31 10.98 4.24L10.98 4.24L10.98 4.24Q10.98 4.13 11.12 4.13L11.12 4.13L11.72 4.13L11.72 4.13Q11.86 4.13 11.93 4.26L11.93 4.26L12.73 5.70ZM22.61 14.11L22.61 14.11Q21.66 14.11 20.94 13.75L20.94 13.75L20.94 13.75Q20.22 13.38 19.82 12.72L19.82 12.72L19.82 12.72Q19.42 12.05 19.42 11.19L19.42 11.19L19.42 10.54L19.42 10.54Q19.42 10.36 19.60 10.36L19.60 10.36L20.23 10.36L20.23 10.36Q20.41 10.36 20.41 10.54L20.41 10.54L20.41 11.19L20.41 11.19Q20.41 12.11 21.02 12.68L21.02 12.68L21.02 12.68Q21.63 13.24 22.61 13.24L22.61 13.24L22.61 13.24Q23.60 13.24 24.21 12.68L24.21 12.68L24.21 12.68Q24.82 12.11 24.82 11.19L24.82 11.19L24.82 4.38L24.82 4.38Q24.82 4.20 25.00 4.20L25.00 4.20L25.63 4.20L25.63 4.20Q25.82 4.20 25.82 4.38L25.82 4.38L25.82 11.19L25.82 11.19Q25.82 12.05 25.42 12.72L25.42 12.72L25.42 12.72Q25.02 13.38 24.29 13.75L24.29 13.75L24.29 13.75Q23.56 14.11 22.61 14.11L22.61 14.11ZM31.01 13.26L31.01 13.26Q31.64 13.24 32.09 12.97L32.09 12.97L32.09 12.97Q32.55 12.70 32.80 12.21L32.80 12.21L32.80 12.21Q32.83 12.14 32.90 12.11L32.90 12.11L32.90 12.11Q32.97 12.08 33.04 12.12L33.04 12.12L33.45 12.35L33.45 12.35Q33.61 12.45 33.53 12.59L33.53 12.59L33.53 12.59Q33.19 13.29 32.52 13.70L32.52 13.70L32.52 13.70Q31.85 14.11 30.93 14.11L30.93 14.11L30.93 14.11Q29.95 14.11 29.27 13.65L29.27 13.65L29.27 13.65Q28.60 13.19 28.31 12.36L28.31 12.36L28.31 12.36Q28.04 11.66 28.04 10.43L28.04 10.43L28.04 10.43Q28.04 9.83 28.06 9.47L28.06 9.47L28.06 9.47Q28.08 9.11 28.17 8.81L28.17 8.81L28.17 8.81Q28.41 7.90 29.13 7.35L29.13 7.35L29.13 7.35Q29.85 6.80 30.87 6.80L30.87 6.80L30.87 6.80Q32.09 6.80 32.78 7.43L32.78 7.43L32.78 7.43Q33.47 8.06 33.67 9.21L33.67 9.21L33.67 9.21Q33.75 9.66 33.75 10.61L33.75 10.61L33.75 10.61Q33.75 10.79 33.57 10.79L33.57 10.79L29.09 10.79L29.09 10.79Q29.02 10.79 29.02 10.86L29.02 10.86L29.02 10.86Q29.02 11.56 29.11 11.89L29.11 11.89L29.11 11.89Q29.26 12.52 29.76 12.89L29.76 12.89L29.76 12.89Q30.25 13.26 31.01 13.26L31.01 13.26ZM30.87 7.67L30.87 7.67Q30.17 7.67 29.72 8.03L29.72 8.03L29.72 8.03Q29.27 8.39 29.13 8.99L29.13 8.99L29.13 8.99Q29.05 9.27 29.02 9.94L29.02 9.94L29.02 9.94Q29.02 10.01 29.09 10.01L29.09 10.01L32.69 10.01L32.69 10.01Q32.76 10.01 32.76 9.94L32.76 9.94L32.76 9.94Q32.73 9.32 32.68 9.04L32.68 9.04L32.68 9.04Q32.52 8.41 32.05 8.04L32.05 8.04L32.05 8.04Q31.58 7.67 30.87 7.67L30.87 7.67ZM41.16 14L41.16 14Q41.01 14 40.96 13.85L40.96 13.85L37.93 4.41L37.93 4.41Q37.91 4.38 37.91 4.34L37.91 4.34L37.91 4.34Q37.91 4.28 37.96 4.24L37.96 4.24L37.96 4.24Q38.01 4.20 38.08 4.20L38.08 4.20L38.75 4.20L38.75 4.20Q38.91 4.20 38.95 4.35L38.95 4.35L41.50 12.49L41.50 12.49Q41.51 12.54 41.54 12.54L41.54 12.54L41.54 12.54Q41.57 12.54 41.58 12.49L41.58 12.49L44.13 4.35L44.13 4.35Q44.17 4.20 44.32 4.20L44.32 4.20L44.98 4.20L44.98 4.20Q45.08 4.20 45.12 4.26L45.12 4.26L45.12 4.26Q45.16 4.31 45.14 4.41L45.14 4.41L42.07 13.85L42.07 13.85Q42.03 14 41.87 14L41.87 14L41.16 14ZM49.22 6.80L49.22 6.80Q50.48 6.80 51.18 7.45L51.18 7.45L51.18 7.45Q51.87 8.09 51.87 9.16L51.87 9.16L51.87 13.82L51.87 13.82Q51.87 14 51.69 14L51.69 14L51.06 14L51.06 14Q50.88 14 50.88 13.82L50.88 13.82L50.88 13.31L50.88 13.31Q50.88 13.27 50.85 13.26L50.85 13.26L50.85 13.26Q50.82 13.24 50.79 13.29L50.79 13.29L50.79 13.29Q50.41 13.69 49.85 13.90L49.85 13.90L49.85 13.90Q49.28 14.11 48.61 14.11L48.61 14.11L48.61 14.11Q47.63 14.11 46.96 13.61L46.96 13.61L46.96 13.61Q46.30 13.10 46.30 12.07L46.30 12.07L46.30 12.07Q46.30 11.02 47.06 10.41L47.06 10.41L47.06 10.41Q47.82 9.80 49.18 9.80L49.18 9.80L50.81 9.80L50.81 9.80Q50.88 9.80 50.88 9.73L50.88 9.73L50.88 9.21L50.88 9.21Q50.88 8.50 50.48 8.09L50.48 8.09L50.48 8.09Q50.08 7.67 49.24 7.67L49.24 7.67L49.24 7.67Q48.58 7.67 48.16 7.92L48.16 7.92L48.16 7.92Q47.74 8.18 47.63 8.62L47.63 8.62L47.63 8.62Q47.59 8.79 47.42 8.76L47.42 8.76L46.73 8.68L46.73 8.68Q46.55 8.65 46.56 8.53L46.56 8.53L46.56 8.53Q46.70 7.76 47.43 7.28L47.43 7.28L47.43 7.28Q48.15 6.80 49.22 6.80L49.22 6.80ZM48.83 13.26L48.83 13.26Q49.66 13.26 50.27 12.85L50.27 12.85L50.27 12.85Q50.88 12.43 50.88 11.73L50.88 11.73L50.88 10.65L50.88 10.65Q50.88 10.58 50.81 10.58L50.81 10.58L49.34 10.58L49.34 10.58Q48.41 10.58 47.85 10.96L47.85 10.96L47.85 10.96Q47.29 11.34 47.29 12.01L47.29 12.01L47.29 12.01Q47.29 12.63 47.73 12.94L47.73 12.94L47.73 12.94Q48.16 13.26 48.83 13.26L48.83 13.26ZM54.53 5.64L54.53 5.64Q54.19 5.64 53.98 5.44L53.98 5.44L53.98 5.44Q53.77 5.24 53.77 4.91L53.77 4.91L53.77 4.91Q53.77 4.59 53.98 4.40L53.98 4.40L53.98 4.40Q54.19 4.20 54.53 4.20L54.53 4.20L54.53 4.20Q54.87 4.20 55.08 4.40L55.08 4.40L55.08 4.40Q55.29 4.59 55.29 4.91L55.29 4.91L55.29 4.91Q55.29 5.24 55.08 5.44L55.08 5.44L55.08 5.44Q54.87 5.64 54.53 5.64L54.53 5.64ZM54.22 14L54.22 14Q54.04 14 54.04 13.82L54.04 13.82L54.04 7.10L54.04 7.10Q54.04 6.92 54.22 6.92L54.22 6.92L54.85 6.92L54.85 6.92Q55.03 6.92 55.03 7.10L55.03 7.10L55.03 13.82L55.03 13.82Q55.03 14 54.85 14L54.85 14L54.22 14ZM59.68 14.07L59.68 14.07Q58.90 14.07 58.29 13.82L58.29 13.82L58.29 13.82Q57.68 13.57 57.35 13.15L57.35 13.15L57.35 13.15Q57.02 12.73 57.02 12.21L57.02 12.21L57.02 12.08L57.02 12.08Q57.02 11.90 57.20 11.90L57.20 11.90L57.81 11.90L57.81 11.90Q57.89 11.90 57.94 11.94L57.94 11.94L57.94 11.94Q57.99 11.97 57.99 12.03L57.99 12.03L57.99 12.15L57.99 12.15Q57.99 12.61 58.46 12.96L58.46 12.96L58.46 12.96Q58.94 13.30 59.67 13.30L59.67 13.30L59.67 13.30Q60.40 13.30 60.84 12.97L60.84 12.97L60.84 12.97Q61.29 12.64 61.29 12.14L61.29 12.14L61.29 12.14Q61.29 11.79 61.07 11.56L61.07 11.56L61.07 11.56Q60.84 11.34 60.52 11.21L60.52 11.21L60.52 11.21Q60.20 11.09 59.56 10.89L59.56 10.89L59.56 10.89Q58.77 10.67 58.27 10.44L58.27 10.44L58.27 10.44Q57.76 10.22 57.41 9.82L57.41 9.82L57.41 9.82Q57.06 9.42 57.06 8.81L57.06 8.81L57.06 8.81Q57.06 7.91 57.77 7.38L57.77 7.38L57.77 7.38Q58.48 6.85 59.63 6.85L59.63 6.85L59.63 6.85Q60.40 6.85 60.99 7.10L60.99 7.10L60.99 7.10Q61.59 7.35 61.91 7.79L61.91 7.79L61.91 7.79Q62.23 8.23 62.23 8.78L62.23 8.78L62.23 8.78Q62.23 8.96 62.05 8.96L62.05 8.96L61.47 8.96L61.47 8.96Q61.29 8.96 61.29 8.86L61.29 8.86L61.29 8.78L61.29 8.78Q61.29 8.30 60.84 7.98L60.84 7.98L60.84 7.98Q60.38 7.66 59.61 7.66L59.61 7.66L59.61 7.66Q58.90 7.66 58.46 7.95L58.46 7.95L58.46 7.95Q58.03 8.23 58.03 8.74L58.03 8.74L58.03 8.74Q58.03 9.21 58.44 9.46L58.44 9.46L58.44 9.46Q58.86 9.72 59.74 9.97L59.74 9.97L59.74 9.97Q60.55 10.19 61.05 10.40L61.05 10.40L61.05 10.40Q61.56 10.61 61.92 11.02L61.92 11.02L61.92 11.02Q62.29 11.42 62.29 12.07L62.29 12.07L62.29 12.07Q62.29 12.98 61.58 13.52L61.58 13.52L61.58 13.52Q60.87 14.07 59.68 14.07L59.68 14.07Z"></path></g><!----><g data-v-423bf9ae="" id="d5f386f5-f7d4-4a90-b755-73425a600bf3" transform="matrix(1.008455514907837,0,0,1.008455514907837,133.1875,-5.8149495124816895)" stroke="none" fill="black"><switch><g><path d="M49.452 36.578l.091.063.013.073.083.051-.048.064-.027.064.013.099.051.07.043-.07.087-.068.122.021.009.074-.037.123.014.076.014.097-.019.125.018.11.07-.012.117-.016.098-.018.133-.021.13-.037.008.055-.008.059-.022.122.03.074.091-.028.147.014.005.08-.004.099.015.092-.068.067-.1.114-.077.01-.139-.034-.077-.009-.083.009.062.15.023.118-.012.056-.073.074.048.049.081-.014.071.088-.032.064-.068.051-.087.089-.12.081-.012.057.012.098.053.092.082.023.007-.081.109-.056.1.123.099-.015.088-.031.073-.032.089-.032.138-.019.015.092-.049.067-.132.024-.081.009-.11.034-.078.018-.072.019-.087.079-.043.085-.046.086-.026.099-.031.067-.067.07-.07.043-.003.123.035.072.166-.043.033-.064.041-.129.042-.063.076-.028.108.041.055-.01.076-.009.096-.014.014-.124.055-.043.161.006.1.012.078-.012.065-.071.085-.09.055-.032.076-.008.098.005.059-.005.052-.011.17.013.11-.013.075-.013.07-.073.095-.014.087-.052.049-.048.007-.082-.044-.048-.095.014-.087-.025.003-.1.014-.062v-.097l.066-.009.078-.013.065-.031.058-.051.027-.077.01-.058-.007-.055.01-.202-.114-.081-.095-.002-.11.01-.071.073-.069.111-.05-.057-.081-.063.006-.118-.025-.136-.095-.079.114-.031-.053-.097-.064-.028-.067-.051-.098-.005-.031-.073-.051-.069-.2-.16-.137-.003-.045-.051-.033-.077-.014-.097-.046-.062-.088-.172h-.121l-.021-.051-.051-.073-.081-.008-.066-.008-.007-.082.024-.076-.006-.159-.004-.059.05-.046.046-.082.073-.048-.019-.095.003-.041.003-.079-.005-.037-.006-.023-.056-.105-.096-.007-.081.01-.056.007-.144.063-.078.012-.111.017-.084-.006-.014-.096.003-.118.089-.05-.012-.076.104-.082.009-.172-.018-.058-.102-.024-.119.039-.1.089-.054.006-.053-.036-.074.005.014.077-.01.06-.065.103-.02.097.017.098-.031.084-.092.043.014.089-.028.062.028.103.003.007.032.077-.003.029-.014.096z"></path><path d="M49.666 37.84l.022-.103-.087-.089-.051-.046-.046-.052-.065-.049-.074.011-.027.097-.128.061.021-.056.018-.048-.006-.077-.067-.066-.108.095-.094.011-.078-.007-.032.068-.031.061-.009.058.026.058.014.073-.075.031-.064.089-.025.082-.098.019-.077.012-.071.029.013.059.007.052.018.151-.149.045.019.116.011.075.048.056.058-.009.075-.009.072-.055.067-.069.061.048-.049.046-.008.064.008.055-.026.083-.033.06-.066.19-.056.143-.121.116.071.047.033.079.058.026.015.076.052-.01.055-.042.088-.04.071.075.085.026.105-.077.061-.113.064-.08.059-.015.113-.014.009-.062.002-.114.079-.013.064-.069.025-.134.062-.095-.027-.057-.06-.108-.011-.114-.018-.079.009-.073-.013-.082.004-.096.07-.088.088-.057.083-.068-.028-.055zM27.327 56.353l-.087-.085-.264-.016-.301.028-.161-.056-.368.135-.131.15-.049.055-.078.119-.06.123.057.082.143-.04.046-.042.075-.162.092-.126.142-.064.157-.05.126.101.058.089.07-.048.092-.016.104.061.083-.052.233.175.057.121.221-.038.171-.004.075.102.038.142.153.023.155.029.089.098-.046.177-.024.092.078.016.273-.067.264-.111.091-.034.144-.003.214-.014-.116-.243-.242.019-.077-.036-.135-.238-.164.029-.214-.045-.049-.062-.158-.061-.528-.104zM29.508 57.769l-.193-.006.026.162.123.059.187-.027.178-.023h.003l.108-.019.1-.016.315.009.05.071.067-.041.048-.099-.024-.144.075.031.138.032.104-.036.144-.095.141-.042.146-.022.128-.039-.146-.183-.336-.028-.229-.111-.235-.057-.304.063-.216.092-.031.285.123.073.024.128-.101.031-.064.015h-.052l-.177-.006zM28.556 57.952l-.509.042-.068.159.182.048.1.043.078.044.089.062.081-.065.135-.081.045-.082-.067-.089z"></path><path d="M50.621 17.745c-18.545 0-33.631 15.087-33.631 33.632 0 18.541 15.086 33.626 33.631 33.626 18.541 0 33.627-15.085 33.627-33.626 0-18.545-15.086-33.632-33.627-33.632zM70.17 41.857l.025.073.017.063.047.044.037-.057.095-.026.021-.006.07-.013.046.01v.003l-.003.048-.043.147.07.128.055.073.041.073.013.015.044.041.028.058.01.053-.034.023-.015.007-.032.086.056.152.006.11.019.125-.01.059v.004l.019.13.03.054.004.066-.024.051-.081.016-.036-.048-.096-.019-.067.013-.085.042-.074.027-.057.076-.067.057-.16.003-.165-.068-.042-.073-.062-.021-.091-.013-.066-.043-.086-.019-.075.019-.074.006-.089-.034-.066-.016-.021-.035-.022-.041-.007-.057-.005-.038-.083-.113-.043-.073-.089-.067-.018-.108.037-.068.058-.121.012-.047.028-.146.018-.083.006-.085.049-.07-.012-.092-.021-.107.006-.076.095-.016.061-.026-.025-.043-.066-.041-.063.013-.074-.07-.063-.082-.022-.034-.073-.105-.024-.032-.069-.038-.107-.095-.067-.034-.058-.055-.019-.123-.085-.058-.113-.119-.09-.333-.069-.062-.02-.116.034-.089-.069-.052-.083-.034-.073.037-.047.04-.024-.071v-.113l.008-.157.036-.292.015-.115.02-.175.082-.072.051-.089.052.037.105.052.118-.146-.062-.021-.027-.062.12-.031.053.02.082.035.052-.055.009-.088.04-.044.21.031.049-.012.074-.141.004-.05.035-.094.038-.034.09-.037.096-.011.042.089.089.051.037.022h.125l.11-.017.061.08.074.049.178.046.144.021.023.126.044.104.064.088.066.049.063.071.01.075-.018.098-.07.076-.102.047-.104-.031-.064-.039-.083-.003-.095-.031-.055-.013-.028-.006H69.65l-.04.081-.032.076-.145.018s-.003-.012-.042.021l-.043.038.012.174.092.07-.012.061-.157.007-.183.043.051.121.12.046.12.056.043.107.044.048.103.076.09.044.067.029h.047l.095.007.061-.007.098.414h.061l.056-.016.019-.006.045-.055.028-.031.021-.027.054.043.068.003.122.094s-.007.05.036.09c.031.042.087.1.087.1l.088.034.083.031-.035.086-.045.021-.003.094-.027.061-.017.04-.063.031-.06-.012-.098-.014-.078-.057-.043-.019-.034-.01-.039-.01-.013.02-.055.101-.043.08.016.076zM40.072 21.001l.006-.009c.144-.05.289-.099.433-.147l-.066.055-.01.007-.106.085-.061.01-.209.026.013-.027zm10.549 62.532c-15.064 0-27.702-10.355-31.198-24.332l.062.036.144.17.293.146.251.121.162.047.204.088.29.146.195.01.194.045.216.126.382.021.252.07.243-.146.145-.107.6-.028.115-.003.043-.006.138.132.164.061.114.248.274.073.256.116.116.013.379.216.209-.105.192-.034.355.066.035.228.192.002.185.208.113-.061.052.045.072.054.009.006.209.152.018.112-.106.056-.045.199.154.289.151-.026.173.084.206.123.121.254.18.061.062.019.079.037.041.018.161-.049.287.215.116.023.331-.131-.02-.113-.133-.131.13-.139.193-.026.201.086.116.021.062.142.03.189.065.186.192.009.072.218.031.188.032.225.04.228-.055.153.001.275.173.126-.194.223-.128.174-.092.168.043.23-.176.216-.118.169-.132.132.149.21-.028.092-.052.149v.013l-.003.224-.052.156-.003.234.031.226.063.184.132.019.053.144-.084.168-.141.145-.075.235.072.219.062.184.18.401.212.153.217.127.177.162.099.139.213.158.257.391.025.053.049.102.04.092.165.328.43.778.318.604.123.29.241.074.22.157.116.089.059.04.051.016.307.086.217.155.248.083.141.106.158.114.043.131.118.384.148.243.044.305.017.346.032.456.031.187-.08.281.02.157.155.436.028.226-.046.175-.006.027-.04.081-.043.081.023.149.071.225-.031.545-.081.238.012.061.018.114v.015l.178.165.037.188-.077.308-.021.089.012.037c.165.1.325.199.486.302a32.865 32.865 0 0 0 4.497 2.237l.006-.016.049-.103.018-.031.144-.562-.075-.221-.166-.092-.028-.212v-.011l-.109-.178-.003-.003-.256-.187-.197-.275.028-.317.126.095.127.288.2.048.135.134.192.007.222-.07.449-.066.125-.225.054-.097.206-.38.06-.107.039-.072.037-.238-.004-.307.222-.305.068-.299.021-.107.218.336.037.058.006-.021.028-.124.032-.133.04-.275.068-.32.164-.184.12-.21-.025-.149-.031-.222-.04-.266-.101-.406.054-.161.122-.181.1-.125.189-.263.261-.257.083-.079.029-.025.282-.123.092-.206.208-.104.39-.254.266-.009.05-.193-.007-.308.116-.476.179-.339.128-.443-.024-.187.036-.203.012-.463-.085-.295.034-.396.006-.07-.01-.037-.082-.333.101-.596.146-.018.041-.012.032-.111.046-.171.037-.231.042-.235.187-.303.298-.312.03-.307.003-.006.019-.115.066-.322-.1-.641-.219-.199-.091-.333-.251-.079-.29.088-.306-.263-.406-.364-.379-.051-.017-.003-.098.014-.201.027-.399-.088-.353-.058-.078.244-.215-.168-.327-.333-.284-.112-.327-.097-.416.016-.197.228-.051-.338-.174-.127-.25.113-.211.381.03.19-.161-.02-.178.107-.037-.26.053-.36.336-.125.01-.192-.028-.196-.181-.162.077-.241-.172-.089-.083-.335-.257-.413-.269-.236-.302-.223-.452-.162-.168-.092-.733.149-.113.022h-.007l-.226-.196-.199-.051-.214.111-.037-.226-.003-.231-.078-.096-.41-.174s-.258.112-.313.007c-.057-.104-.021-.149-.021-.149l.015-.154-.172-.092-.201-.089-.21-.118v-.099l-.001-.106v-.062l-.146.061-.232.096-.203.088-.088.2-.309.014-.163-.09-.269.04-.224.031-.283.162-.102-.175-.209-.124-.253-.116-.196-.047.026.184-.172.142-.175.146.025.152.012.069.019.028.129.181-.024.146-.013.092-.071.012-.085.007-.145-.202-.039-.264v-.231l-.069-.223.032-.061.076-.145.07-.131-.103.014-.113.02-.01.003-.094.132-.132.131-.178.145-.143.063-.354.205-.09.168-.039.233.073.223-.266.54-.522-.414-.263-.233-.294.123-.195.223-.254.113-.331.025-.284-.278-.161-.225-.182-.26-.128-.324-.003-.006.003-.387.003-.668V59.917l-.101-.187-.238-.104-.092-.035h-.036l-.502.01-.259.073-.208.065-.181.061-.052.016-.278-.031.009-.052.019-.091.104-.57-.024-.381.191-.26-.112-1.223-.299.053-.362.137-.206.178-.107.289.036.263-.135.364-.21.149-.224.073-.174.105-.12.21-.17.073-.114.045-.186.028-.046.01-.012-.028-.049-.109-.001-.006-.323-.142-.769-.963-.063-.372-.049-.346-.153-.589.053-.319.129-.168-.04-.268-.163-.357-.009-.313.142-.323.357-.207.032-.238.154-.252.06-.023.112-.05.124-.051.29-.12.257-.042.353.026.115.209.166-.141.313.029.135-.134-.066-.181v-.267l.302-.047.333-.051.215-.109.254.152.22.039.018.003.096-.013.131-.021.141-.063.181.129.184.202.104.173.185.478.036.226.18.058.028.189.202.188.168.323.152-.023.055-.126.05-.199-.051-.341-.136-.362-.172-.359-.043-.297-.184-.207-.042-.26.021-.352.022-.387.214-.342.127-.171.462-.498.193-.257.197-.221.022-.125.232-.229-.116-.284-.109-.178-.251-.155-.035-.228-.112-.21.007-.196-.033-.223.036-.095.034-.092.069-.187h.27l-.126.174-.013.038-.032.092-.01.032.04.263.127.095.208.086.08-.244.056-.171.021-.07-.02-.025-.131-.18.104-.099.184-.061.095-.171.012-.162.008-.113.002-.037.274-.233-.235-.002.197-.263.144-.063.058-.025.112-.052.189-.092.187-.027.017-.157-.063-.139v-.272l-.042-.269.197-.217.221-.076.198-.18.206.079.14-.099.053-.161-.043-.263.299-.086.179-.063.109-.089.051-.126.141-.138.105.214.192.009.095.102-.438.146-.173.145-.174.179.075.221.133.092.213.125.187-.036.168-.174.047-.2.154-.256.22-.07.139-.102.218-.339-.311-.032-.308.048-.227-.196-.129-.134-.158-.284-.155-.247-.398-.089.009-.193.154.013.226-.302.024-.12-.058-.146-.149-.171-.264.042-.425.22-.237.224-.34.291-.218.338.003-.194.135-.4.211-.155.168-.181.114-.205.296-.352.706-.149.336-.089.215-.107.33.139.399-.178.201-.184.333-.32-.032-.187.256-.117.325-.126.228-.308-.03-.184-.046-.299-.25-.116-.195-.049-.327.167-.56.353.172-.142.176-.336.225-.07.131-.135-.068-.181-.13-.138-.16-.012-.528.079-.159-.283-.251-.149-.179-.172-.187-.164.244-.153-.024-.151-.233-.038-.023-.195-.192-.159-.128-.131-.218.07.085-.208-.038-.224-.136-.141-.206-.075-.155-.25-.037-.252-.006-.046-.104.013h-.009l-.035.193-.008.045-.004.01-.143.287-.181.104-.09.122-.17.184-.212.075-.15.055-.143-.207-.127-.063-.306.018-.09-.34-.005-.197-.003-.103v-.005l.006-.233.011-.152-.225.034-.057-.104-.132-.137-.212.146-.146.024-.158-.25-.297-.127-.029-.015-.075-.036-.262-.139-.253.23-.396-.047-.383.003-.36.108.049.325.05.313.036.267.172.033.106.364-.077.18-.298.204-.07.285.029.024.077.067.275.234.272.393.173.146.096.082.054.048-.038.5-.108.344-.13.1-.135.109-.074.062-.237.25.1.313.067.108.082.142.004.019.045.305-.023.548-.128.235-.071-.007-.113-.016-.205-.024-.252-.232-.097-.26-.219-.213-.047-.269-.048-.319-.055-.375-.318-.137-.697.105-.37-.124-.112-.032-.318-.108-.256-.228-.087-.041-.103-.047-.166-.076-.333-.061-.343-.111-.303.154-.244-.184-.155-.181a32.072 32.072 0 0 1 4.136-7.733l.11.062.005-.129.095-.063.109.031.172.127.062-.086.094.138.031.176.189.054-.069.238.063.067.095.107.094-.039.116-.068.089-.115.141-.079.022.155.026.178h.004l.162.075.109.033.021.176.088.22.092.116-.17.046.026.152.035.092.063.071-.087.09-.089.117-.116.168-.116.149.009.18.453.309-.057.139-.414.137-.162.081-.382.003-.301.17-.081.046-.011.031-.138.348.034.198.125.035.12.082.294-.098.176-.206.096-.012.018-.003.11-.018.064-.031.01-.002-.061-.224.079.04.073-.009.149-.052.063.095.153.006.09.083.168.076.057.045.065.06.091.084.053.049.204-.027.083.065-.12.094-.041.031.033.082.003.013.078.009.032.003.201-.003.073-.034.025-.011.226-.034.318-.07.237.015.226-.036.206.021.241-.061-.012-.132-.157.029-.149-.16-.208-.016-.274-.136-.253-.146.096-.038.224-.061.141-.073.177.155.315-.104.294.086-.055-.22.058-.139-.033-.179-.092-.111-.125-.003-.502-.205-.144-.16-.109-.163-.083-.061.048-.344-.02-.173.213-.086.138.187.107.083.122.11.207.023.025.123.125.024.091.089.117.112.265.012.172-.024.009-.104-.019-.277.17-.074.027-.138-.014-.123.376-.055-.009-.385-.072-.119-.14-.104-.202.025-.257.174-.079-.013-.097.013-.177.029-.201-.3-.13-.212-.122.068-.063.086-.083.114-.22.089-.123-.162-.067-.079-.085-.089-.03-.036-.355-.072-.106-.092-.029-.168.103-.021.106-.141-.078-.168.197-.029-.161-.104-.208.01-.1-.142.117-.098.138-.067v-.18l-.188-.077-.007.104-.181.003-.16-.205-.191-.029-.069-.009-.063.088-.046.202-.011.063-.011-.026-.043-.145-.052-.177-.099-.108-.118-.087-.096-.132-.247.032c-.077.01-.046.037-.046.037l-.251.035-.067-.092-.208.137-.015-.107.003-.073.002-.062a32.355 32.355 0 0 1 3.37-3.593l.188-.031.35.066.216.154.047.046.052.06.058-.008.089-.014.15-.063.124.058.057.145.051.107.42.173.238.059.035.007.02.132.009.058-.04.238.199.006.064.181.208.13.03.19.21.12.028.185-.101.092-.049.202v.19l-.025.121.019.11.19.009.143-.061.177-.104.105.006.095.007.032-.007.309-.053.05.11.155.017.198.006.12.058-.055.164.026.148.1.141-.022.116-.187.035-.123-.059-.209-.09-.352-.02-.299.047-.016.008-.15.056-.018.004.015.003.108.035.16.04.089.095.315.03.092.099.161.053.163.06.149-.024.106-.058.116-.01.082.096.034.184.065.188-.008.229-.141.02.029.229-.007.189-.152-.013-.154.025-.131.134-.024.12.123.06.308-.046.146-.026.068.143.052.148-.181.063-.195-.007-.159-.049-.183.098-.165.184.033.189.146.166-.098.173.04.221.124.062.052.104.151-.022.213.12.074.259-.012.155-.06.123.098.144.162-.178.024-.118.11-.063.147-.018-.089.204-.135.1-.106.09.11.181.162.089.026.146.063.11.011-.003.119-.019.015-.003.095.141.107.077.024.019.013.085.02.102.258-.184.015-.007.003.004.059.134.144.171.028.19.127.051.056.15.093.141.219-.109.089-.169.138-.099.064.151.143.165.267-.044.189.01.098.104.12.058.118.254.09-.089.108-.095.021-.121-.061-.11-.128-.131.08-.17.124-.247.016-.158.053-.12.003-.273v-.193l.042-.067.061-.098.043-.042.05-.05.066-.126.052-.118-.026-.157-.003-.305.018-.155.04-.241.015-.111.138-.104.05-.195.33-.089.177-.147.184-.063.058.15.155.009.095-.129.083-.015.109-.017.031-.006.169-.143.125-.205.053-.164.101-.132.137-.098.248-.384.173-.106-.022-.146-.038-.267.131.1.118.018.214-.112.185-.06.074-.015.156.015.184-.066.109-.019.147-.058.104-.059.104-.096.069-.048.158.019.181-.03.084-.242.214-.11.098-.132.157.02.084-.169.263-.078.184-.031.021-.12.091-.167.221-.299-.297.045-.198-.007-.242-.121-.189.029-.244.193-.146.019.064-.315.021-.121-.092-.102.092-.162-.129-.098-.111.015h-.236l-.189.033-.172-.131.113-.018.15-.028.115-.018.111-.015.144-.025.121.024.157.016.125.055.131.095.172.137.061.102.163.05.155.051.164.06.188.009.124.015.099-.086-.021-.158-.065-.178-.213-.129-.141-.167-.371-.138-.168-.126-.164-.049-.135-.095-.12-.063-.143.063-.147.022-.195-.011-.049-.082-.061-.098.012-.01.086-.111.109-.057.136-.103.18-.105.135.179.127.055.098.102h.02l.132.015.052.092.107.188.174.092.118.019.154.052.109-.052-.093-.104-.097-.135.173-.106-.101-.104-.024-.027-.214-.086-.173-.13-.261-.152.275-.04.149.016.227-.034.132-.146.184-.058.088-.206-.145-.17-.362.17v-.275l.299-.076-.026-.149-.017-.113-.018-.115-.224-.196.149-.024.126.02.164.094.087-.207-.024-.15-.284-.34-.175.102-.192.029.101-.131.088-.162-.026-.118-.024-.068-.028-.076.437-.006h.103l.085.063.189-.032.143-.092-.023-.033-.073-.1-.057-.085-.098-.137-.146.058-.223.034-.135-.095.231-.267-.279-.035-.46-.005-.019-.115c-.015-.11.154.016.154.016l.274-.038.045-.164.053-.162.227-.263-.052-.342.47-.222-.018-.114-.333-.144-.258.042-.216.11-.07-.189.17-.135.263-.04.169.083.528-.077.195-.263.119-.116.087-.083.029-.026.127-.132.173-.146.125-.171.281.034.215-.3-.239-.083-.449.072-.124.02-.08.009-.287.043-.637.095-.213.152-.261.04-.262.042-.195-.011-.218.109-.195.221-.12.179-.253.145-.04.007-.129.019-.167.027-.136-.129.176-.107.138-.095.105-.056.099-.128.125-.178-.131-.091-.227-.004-.263.044-.047.231-.359.127-.249-.114-.204-.107-.01-.005-.146.005-.235.01-.551.166-.345.046-.504.234.008-.089.003-.107.289-.158.101-.036.296-.104.643-.092.54-.098.189-.037.694-.125.464.007.26-.041.168-.179.038-.239-.316-.064-.116.016-.299.009-.092-.04-.039-.021-.102-.002h-.089l-.232-.009-.061-.144-.04-.04-.067-.063a32.094 32.094 0 0 1 9.884-1.556c7.522 0 14.436 2.59 19.912 6.917l.038.247.105.241-.171.057-.152-.08-.077.259-.152-.045-.089-.128-.055-.142-.25.079-.144.017-.006.187-.261-.07-.155-.047-.178.022-.129.127-.032.107-.025.131-.009.028-.245.034-.146.024-.108-.016-.115-.021.164-.103.059-.115-.183-.003-.092-.135-.114-.021-.354.308-.187.172-.185.032-.131.092-.192.138-.104.057-.137.049-.009.016-.091.069-.188.147-.009.184v.22l-.193.174-.1.087-.137.055-.148-.044-.17-.158-.037-.212.095-.128.192-.173-.073-.245-.137-.196-.27-.063-.426.063-.008.184.084.095-.026.296-.012.146.032.215-.038.259-.035.224-.045.187-.306-.1-.085-.095-.114-.019-.138.118-.082.074-.033.029-.123.162-.107.236.016.109.139.195.125.126-.175.028-.201-.116-.155-.081-.224-.011-.157-.084-.136.021-.008.222.028.211.12.058.176.194-.037.184-.213.068-.172.029-.278-.108-.087-.097-.133-.157-.14-.197-.073-.247-.064-.17-.19-.078-.194-.079-.229-.078-.129-.12-.141-.237-.224-.257.4.232.176-.028.118.086.192.057.296.021.181.007.181.007.333.024.195.082.238-.113.178-.245.131-.13.13-.117.084-.077.071-.065-.115-.272-.068-.211-.184-.003-.195-.117-.056-.042-.195-.142-.098-.041-.14-.063-.187-.082-.528-.102-.143.022-.302-.065h-.213l-.287.043-.12-.057-.264-.064.092-.129-.161-.123-.109.022-.176.024-.148.024-.295.153-.131-.127.093-.085.061-.082.204-.104-.259-.252-.106.018-.076-.061-.159-.085-.019.113.019.137-.169.104-.131-.159.114-.208-.051-.096-.121-.057-.089.091-.01.184-.049.183-.015.113-.102.052-.089-.097-.018-.102-.074-.031-.018.151-.08.155-.017.023-.046.063-.004.049-.01.098-.085.126-.061-.175-.02-.106.065-.095.023-.031.027-.083.024-.069-.092-.095-.063-.02-.092-.029-.077-.016-.029-.004-.114.012v.187l-.063.083-.139.059-.015.143-.092.092-.138.057-.11.017-.239-.114-.127-.025-.06-.016.074.244-.052.084-.116-.028-.156-.04.067.172-.112.018-.132.055-.125.162-.108-.021-.084.166-.132.086-.091.164-.078.12-.009.222-.073.258-.155.134-.127.129-.093.012-.047.008.064.17.056.139-.007.06-.007.055-.097.122-.111.199-.106.013-.098.093-.045.184-.19.225-.021.029-.046.192-.131.126-.037.188-.135.093-.094.053-.119.015-.142.239-.048.155-.126.093-.015.143.146.053.109-.015-.085.152-.001.006-.161.101-.146.018-.034-.092-.021-.046-.107-.018-.109.018-.138.057-.021.026-.07.095.022.022.073.072.076.058-.278.123.019.139-.104.02-.139.022-.063.115.016.105-.057.011-.109.086-.045.152-.146.028-.081.113-.168.102-.057.116-.087.163.106.205.028.212.112.235.092.089.272-.073-.029.298-.197.1-.015.146.019.145.146-.021.07.208.029.213.194.08.188.04.427-.06.163-.139.143-.24.241-.109.111-.161.174-.063.14.126.054.172.1.17.01.055.016.111.008.046.157.267.268.144.119.054.05.096-.12.167-.092.086-.171.061.024.181-.177.024-.116-.016.036.215.13.159h.225l.049-.114-.023-.149.053-.152.138-.06.015.104.089.102.242-.073.094-.092.01-.182.085-.155.124-.095.356-.089.11-.234-.031-.179-.035-.249.041-.222.001-.061.002-.113.001-.048-.027-.144.023-.11.139-.024.109-.015.165-.095.104-.057.055-.113-.055-.1.108-.236-.175-.191-.123-.126-.152-.015-.113-.06-.116-.049-.155-.741.061-.123-.023-.141.089-.083.133-.133.04-.224.025-.022.066-.061.001-.115v-.103l.131-.133.339-.119.166-.133.042-.195.166-.132-.102-.167-.132-.162.117-.165.092-.123.116-.161.061-.114.056-.121.243-.043.092.101.389-.058.201.112.028.174v.222l-.198.177-.147.208-.082.188-.117.162-.072.267-.187.211-.017.039-.046.113-.018.048.05.313.032.213.11.244-.089.157.128.125.056.132.074-.011.138-.055.109.021-.015.116-.088.154.259-.003.05.103.266.101.123-.123.085-.196.091-.087.199-.142.142-.052.213-.034.174-.063.138-.022.182.227.152.053.143-.021.105-.055.118.055-.082.187-.095.132-.206.036-.161-.055-.004.22-.274.079-.189-.042-.181.026-.146-.052-.159.204-.174.031-.141.02-.087.124-.101.088.024.167.007.042.049.053.043.042.115.056.006.514-.127.125-.089.122-.154-.049-.052-.104-.081-.059-.135-.162-.208.07.073.24.005.255-.048.192-.082.161-.058.111.017.107.004.036.013.021.084.106.022.146-.018.021-.141.151-.052-.106-.107-.018-.05.188-.015.15-.037.222-.159-.084-.095.051-.082.19-.099-.162-.082-.063-.218.035-.087.123-.333.196-.268.109-.143.063-.144.05-.238.009-.132-.09-.256-.07-.077.011-.135.312-.174.026-.095-.093-.113-.097-.14.026-.144-.126-.052-.206.167-.1.004-.145-.092-.134-.028-.178.067-.265.025-.111-.195-.118-.077-.202.119-.202-.023-.162-.004-.019-.058-.078-.037-.056-.055.076-.095.129-.003.005-.09.157-.111.2-.234.108.191.04-.289.305.103.163.127.128.017.143.063.169.101.129.049.141.092.311.063.175-.179.287-.065.003-.152-.012-.167.061-.249.077-.105.012-.184.028-.01.115-.102.089-.106.238-.007.21v.228l-.015.105-.27.043-.109.014-.012.003-.206.104-.138.061-.164.131-.006.182-.047.15-.097.125-.206.072-.049.149-.134.06-.174.101-.095-.171-.215-.003-.043.191.053.138.07.207-.128.092-.153-.017-.138.02-.144.025-.223.144-.103.082-.056.123.028.175.149.017.265.024.232.172.309.155.307.163.116.217.055.323.009.136.006.118.013.23.053.357-.138.144-.298-.076-.281.043-.252-.078-.243.028-.238.042-.341.173-.252-.043-.21-.052-.064.095-.104.134-.231.082-.106.137.029.159.15.184.106.187.047.317.042.279-.089.218-.034.286.034.242.073.197.099.099.054.364.029.202.29.036.309-.131.119-.016.146.181.194.133.199.013.224-.158.132-.142.244-.039.204-.025.101-.143.052-.168.213-.196.157-.063.057-.175.018-.167.172-.188.021-.129-.105-.146.019-.165.126-.222.101-.181.061-.089.144-.187.22-.156.222-.15.063-.094.041-.255-.025-.16-.138-.142.063-.134.211-.107.018-.01h.28l.293.08.213.048.11-.141.085-.174.192-.07.143-.184.087-.219.285-.047.194.257.141.139.202.223.071.189.191.219.218.089.224.127.223.085.259.086.271.203.235.173.176.094.074.189.04.282-.017.164-.106.141-.106.061-.161.019-.165.066-.195.11-.115-.021.112.187.259.081.218.095.131.063.007-.209.05-.213.194-.071.099-.134.107-.141.09-.182.005-.241-.017-.118-.101-.107-.034-.202.267-.159.183.13-.21-.291-.144-.146-.18-.092-.136-.104-.188-.177-.123-.023-.467-.086-.156-.224-.061-.155-.179-.093-.271-.165-.142-.14.012-.136.009-.113.002-.076-.108-.273.333-.17.108.487.006.019.033-.021.116-.08.17-.229.236.21.007.055.018.107.003.04.066.188.273.084.257.121.321.241.457.052.198.252.092.6.067.155.199.253.323.196.197.248.174.101.244.003-.212.194.074.193.202.01.269-.122.212-.197v-.008l.024-.113.06-.025.095-.042-.064-.152-.075-.019-.12-.031h-.014l-.209-.01-.106-.148-.061-.149.018-.165-.071-.193-.038-.196.184.127.136-.016.108-.016v-.001l.063-.133-.066-.151.197-.029.368-.019.104.189.129.267.108.185.099.107.023.16-.091.176.067.196.205.013.057.352.191-.025.151.139.254.087.32.196.15-.067.092-.177.071-.134.232-.034.265.121.218.09.244-.04.18-.149.205-.23.218-.155.098.349.01.068.02.105.027.187.062.398.041.28-.07.339-.001.244-.021.167-.091.216-.599.055-.151.099-.17-.058-.237.04-.258.16-.119.06-.199.035-.2-.009-.178-.063-.034.294-.153.061-.118.019-.126-.019-.22-.126-.208-.014-.198.032-.138-.107-.079-.033-.059-.027h-.242l-.161.027-.16.02-.146-.142-.095-.106-.198.033-.162.024-.241.244-.106.136.036.241.029.197-.104.136-.101.14-.244-.006-.129-.021-.167-.056-.215-.089-.266-.083-.297-.121-.229-.163-.327.009-.296-.079-.29-.032-.152-.146-.201-.011-.139-.103-.085-.178-.047-.104-.045-.098.103-.134-.058-.364-.18-.132.064-.29.159-.315-.233.04-.168.016-.194.033-.265.123-.252-.003-.169-.055-.056.13-.198.032-.174-.017-.291-.076-.235.076-.018.017-.101.095-.133.133-.354.049-.244-.039-.167.063-.089.178-.181.146-.269.126-.063.131-.273.081-.199.073-.139.104-.362.058-.152.063-.162.025-.215-.089-.171-.058-.199.03.043.275-.043.25-.138.229-.13.184-.001.007-.137.137h-.003l-.214.151-.205.319-.008.453.044.317.03.203.037.24-.111.34-.301.413-.13.189-.179.187-.097.175-.191.073-.145.431-.249.482-.038.252-.159.308-.06.425-.261.406.049.312.117.271.018.045.04.11.029.078.011.407.049.272.146.191.052.354-.028.285-.035.339-.108.386-.072.335.152.182.085.306.113.192.147.137.146.188.162.216.216.089.095.107.24.215.192.216.116.266.111.144.166.263.056.063.036.045.066.058.169.151.415.308.309.152.315.196.211.047.217.052.158-.022.646-.299.232-.126.241-.031.31-.054.203-.028.354-.092.271-.086.221-.115.244-.031.244-.287.184-.146.572-.168.013-.005.108.033.064.019.304.158.07.193.054.317.264.127.391-.098.218-.118.205-.031.369.267.113.192-.013.495-.003.158-.055.249.099.604-.15.39.385.387.437.428.456.584.083.307.198.219.247.285.077.485.066.181.04.107.046.132.061.403.071.231.043.272.049.412-.175.352-.018.199-.006.453-.037.336-.011.035-.038.123-.056.183.018.404.179.343.167.295.238.249.258.619.29.281.351.679.052.358.049.32.162.422.046.122.027.096.056.219.212.288.24.251.232.208.147.388.183.364.043.085.012.028.071.21.102.187-.007.45.049.32.104.147.261.081.36-.016.024-.005.149-.043.14-.039.641-.095.176-.193.437-.068.16-.023.41-.226.213-.192.001-.001.057-.098.043-.079.135-.181.095-.187.141-.14.098-.175.135-.189.096-.178.036-.291.135-.185.092-.219.141-.143.098-.175-.154-.184.358-.095-.074-.481-.092-.311-.152-.182.152-.104.169-.189.231-.117.19-.066.102-.142-.024-.165-.077-1.038-.12-.233-.055-.111-.141-.144-.07-.194.007-.2.146-.105.055-.211.105-.344.136-.181.41-.228.382-.229.123-.26.175-.437.061-.416-.052-.314-.037-.255-.018-.103-.022-.165-.049-.212-.024-.101-.046-.199-.061-.398-.156-.227-.19-.169-.051-.602.079-.304-.18-.131-.202-.177-.033-.282.164-.507-.066-.443.083-.254.128-.229.283-.288.108-.336.262-.457.101-.38.175-.19.293-.244.313-.336.32-.58.264-.409.135-.431v-.282l.103-.428.153-.591.171-.477.031-.329.073-.337-.044-.297-.009-.063-.005-.036-.051-.281-.26.158-.226.114-.229.085-.119.058-.214.193-.071.095-.098.134-.346.021-.1.007-.198.029-.212-.052-.375-.308-.287-.281-.029-.196-.29-.238-.129-.145-.183-.137-.186-.137-.142-.196-.219-.07-.01-.003-.107-.058-.128-.068-.104-.306-.088-.24-.009-.025-.046-.082-.095-.168-.197-.185-.195-.247-.198-.184-.104-.365v-.33l-.071-.154-.211-.292-.312-.225-.25-.564-.138-.189-.187-.517-.14-.206-.258-.231-.036-.269-.195-.182-.028-.222-.037-.206.2.238.238.129.352.162.21.299.147.249.379.323.265.29.413.26.033.212.043.266.038.27.141.195.093.207.232.45.063.037.124.068.282.154.262.284.205.241.166.409.005.013.035.104.063.197.113.414.091.207.379.326.178.078.281.07.354-.219.149-.021.325-.051.498-.296.305-.154.177-.244.218-.149.086-.058v-.031l.002-.297.403-.229.13-.181.061-.082.079-.104.025-.026.207-.23.413-.171.123-.232.106-.396.132-.184.213-.414-.04-.268.212-.363-.149-.306-.423-.258-.231-.073-.242-.131-.145-.25-.183-.133-.045-.266-.294.407-.018.026-.064.195-.013.035-.458.179-.208.087-.22-.024-.157-.301-.098-.263-.165-.023-.116.286-.201-.238-.144-.253-.235-.458-.207-.289-.206-.246-.138-.196.016-.271.363-.109.373-.059.252.237.084.203.077.148.205.244.128.143.244.18.184.083.275.066.237-.04.113-.018.025-.003.257-.089.214-.034.221.019.2.241.136.144.213-.031.563.132.291.12.572-.142.843-.238.272.07.116.034.118.031.006.003.08.159.451.146.311.223.237.129.267-.04-.31.484-.138.185.373.265.38.052.22-.032.144-.13-.058-.374.035-.167.173.088.106.304.051.369.002.386.133.473.215.517.037.085.005.013.251.612.293.446.062.425.015.054.095.314.014.013.375.367.357.542.11.421.31.226.241-.202.121-.286.2-.136.072.145.067.426.168.354.109.368.281.065.187-.192-.049-.316-.095-.265-.253-.23-.138-.194-.077-.152-.201-.243-.04-.269-.04-.263-.058-.372.058-.339-.073-.481-.052-.314.017-.274.363-.44.229-.306.254-.098.309-.482.139-.187.134-.184.211-.409.101-.079.079-.06c.052.746.087 1.496.087 2.256-.001 17.755-14.397 32.151-32.158 32.151zm11.71-40.665l-.074.117-.095-.013-.104-.034-.07.044-.171.121-.109.012.072-.13.247-.136.04-.042.058-.05.04-.137-.095-.016-.115-.016-.101-.061-.083-.123-.112-.182.085-.206.064-.213.029-.068.12-.104.012-.011-.021-.101-.049-.24.063-.105.021-.065.135-.052-.043-.202-.088-.121.08-.114.082-.092.159-.177.067-.094.055-.181.214-.03.048-.016.059.043.016.04.071.072.247.043.187-.027.161-.079.022.143-.068.057-.181.079-.048.101-.044.104.107.012h.223l.049.092.002.126-.034.08.069.052h.13l.155-.108.195-.096.113-.057.063-.029.073-.043.119-.017.052-.118.255-.085.057.066.053.125.116.046.102.046.177.116.07.047.082.07.104.098.124.089.097.029.235.082.182.031.092.083.089.107.033.045.02.061.002.006.008.06-.011.115-.061.181-.115.129-.067.055-.147.104-.092.028-.101-.044-.055-.043-.003-.002-.062-.034-.042.08-.002.003-.08.066-.375.037-.149-.053-.086-.035-.041-.06h-.128l-.075.095-.098-.098-.089-.032-.096-.017h-.122l-.015-.104-.192.012-.517.032-.083.119-.181.14-.072.073-.157.076-.04.086-.061.066-.271.092-.047-.057-.167.014-.107.043.01.179zm2.372-2.967l.125.079.052.052-.122.149.033.085-.155.041-.169.061-.165.04-.245.039-.098-.039-.104-.056-.018-.094-.101-.034-.083-.037-.046-.072-.114-.058.322-.038.094.006.114-.082.089-.144.148-.066.26-.076.065-.087.128-.08.061-.038.085-.049.014-.003.115-.034.122-.019.089-.007.015.086-.1.065-.074.124-.078.049-.053.034-.024.082-.006.001-.065.009-.127.034.016.077zM30.966 12.089l-.657-1.314a46.17 46.17 0 0 1 1.345-.647l.614 1.335c-.439.201-.872.411-1.302.626zM50.316 96.761a47.167 47.167 0 0 1-2.95-.113l.104-1.467c.942.066 1.896.104 2.855.11l-.009 1.47zm2.953-.076l-.086-1.467a45.19 45.19 0 0 0 2.847-.255l.179 1.458c-.973.119-1.952.206-2.94.264zm-8.84-.342a43.84 43.84 0 0 1-2.914-.495l.296-1.439c.929.189 1.867.35 2.815.479l-.197 1.455zm14.698-.377l-.275-1.443c.941-.18 1.871-.387 2.789-.625l.368 1.424c-.95.243-1.912.458-2.882.644zm-20.483-.801a44.57 44.57 0 0 1-2.823-.871l.479-1.39c.896.311 1.809.592 2.731.843l-.387 1.418zm26.199-.676l-.459-1.396a43.552 43.552 0 0 0 2.682-.983l.552 1.363c-.913.367-1.837.706-2.775 1.016zm-31.785-1.25a46.041 46.041 0 0 1-2.688-1.233l.657-1.314c.851.425 1.718.822 2.599 1.192l-.568 1.355zm37.255-.96l-.638-1.323a44.285 44.285 0 0 0 2.529-1.323l.723 1.277c-.854.485-1.727.942-2.614 1.369zm-42.545-1.68a46.684 46.684 0 0 1-2.502-1.571l.82-1.221a43.74 43.74 0 0 0 2.423 1.523l-.741 1.269zm47.68-1.223l-.804-1.23a43.716 43.716 0 0 0 2.336-1.642l.885 1.176a46.32 46.32 0 0 1-2.417 1.696zm-52.577-2.08a46.118 46.118 0 0 1-2.277-1.883l.974-1.102a44.594 44.594 0 0 0 2.202 1.822l-.899 1.163zm57.296-1.467l-.959-1.116a43.768 43.768 0 0 0 2.108-1.93l1.027 1.052a46.674 46.674 0 0 1-2.176 1.994zm-61.723-2.442a46.158 46.158 0 0 1-2.015-2.158l1.107-.967a43.222 43.222 0 0 0 1.949 2.089l-1.041 1.036zm65.945-1.685l-1.094-.981a43.208 43.208 0 0 0 1.842-2.188l1.153.91a45.577 45.577 0 0 1-1.901 2.259zm-69.828-2.758a44.392 44.392 0 0 1-1.719-2.403l1.223-.814a43.885 43.885 0 0 0 1.661 2.323l-1.165.894zm73.483-1.881l-1.211-.832a44.895 44.895 0 0 0 1.543-2.408l1.263.752a46.074 46.074 0 0 1-1.595 2.488zm-76.76-3.027c-.492-.85-.956-1.72-1.392-2.604l1.317-.648c.422.854.871 1.693 1.346 2.517l-1.271.735zm79.784-2.05l-1.31-.666c.433-.848.839-1.71 1.217-2.59l1.35.581a44.1 44.1 0 0 1-1.257 2.675zM8.674 68.747a45.104 45.104 0 0 1-1.042-2.764l1.393-.474c.307.905.643 1.797 1.007 2.674l-1.358.564zm84.731-2.189l-1.386-.491c.318-.894.606-1.804.866-2.723l1.415.399a44.48 44.48 0 0 1-.895 2.815zM6.773 63.156a45.224 45.224 0 0 1-.67-2.877l1.44-.284a43.7 43.7 0 0 0 .65 2.781l-1.42.38zm88.237-2.28l-1.438-.308c.198-.927.366-1.865.504-2.813l1.455.213a45.776 45.776 0 0 1-.521 2.908zM5.623 57.365a44.917 44.917 0 0 1-.29-2.938l1.467-.095c.062.955.156 1.902.281 2.841l-1.458.192zm90.236-2.33l-1.464-.119c.076-.943.121-1.895.136-2.854l1.469.022a44.302 44.302 0 0 1-.141 2.951zM5.231 51.476v-.098c0-.958.028-1.911.089-2.855l1.467.095a43.5 43.5 0 0 0-.087 2.76l-1.469.098zm89.254-2.274a44.463 44.463 0 0 0-.233-2.847l1.462-.167c.11.972.19 1.953.237 2.942l-1.466.072zM7.055 45.77l-1.458-.187c.127-.982.281-1.956.468-2.917l1.444.279a43.735 43.735 0 0 0-.454 2.825zm86.781-2.244a43.99 43.99 0 0 0-.598-2.794l1.426-.353c.237.95.443 1.914.619 2.887l-1.447.26zM8.146 40.16l-1.421-.375a47.31 47.31 0 0 1 .846-2.83l1.395.465a43.476 43.476 0 0 0-.82 2.74zm84.313-2.175a44.279 44.279 0 0 0-.961-2.691l1.369-.539c.359.915.689 1.842.992 2.783l-1.4.447zM9.961 34.742l-1.36-.56a45.62 45.62 0 0 1 1.21-2.695l1.32.646a42.74 42.74 0 0 0-1.17 2.609zm80.405-2.069a43.97 43.97 0 0 0-1.3-2.54l1.285-.712c.476.858.923 1.733 1.344 2.626l-1.329.626zm-2.763-4.991a45.006 45.006 0 0 0-1.621-2.354l1.183-.873a45.563 45.563 0 0 1 1.675 2.432l-1.237.795zm-3.391-4.597A44.162 44.162 0 0 0 82.3 20.96l1.062-1.017a45.645 45.645 0 0 1 1.974 2.194l-1.124.948zm-3.956-4.122a43.69 43.69 0 0 0-2.17-1.861l.918-1.145a45.2 45.2 0 0 1 2.245 1.922l-.993 1.084zm-4.458-3.577a44.114 44.114 0 0 0-2.394-1.564l.764-1.254a45.875 45.875 0 0 1 2.475 1.615l-.845 1.203zm-4.885-2.971a44.957 44.957 0 0 0-2.579-1.24l.595-1.343c.904.398 1.792.826 2.665 1.28l-.681 1.303zM34.9 10.354l-.525-1.372a42.435 42.435 0 0 1 2.793-.968l.434 1.403c-.914.285-1.815.596-2.702.937zm30.783-.247a45.166 45.166 0 0 0-2.717-.893l.413-1.409c.947.275 1.883.584 2.806.921l-.502 1.381zM40.358 8.662l-.342-1.43c.954-.228 1.92-.426 2.895-.593l.247 1.448c-.943.163-1.877.354-2.8.575zm19.84-.158a43.57 43.57 0 0 0-2.808-.529l.224-1.452c.978.152 1.944.334 2.903.547l-.319 1.434zm-14.209-.807l-.151-1.461a45.967 45.967 0 0 1 2.946-.213l.057 1.469c-.96.038-1.91.107-2.852.205zm8.564-.067a44.172 44.172 0 0 0-2.853-.16L51.734 6c.991.024 1.975.08 2.947.166l-.128 1.464zM12.544 29.47l-1.271-.734c.249-.431.504-.858.767-1.28l1.249.776c-.255.409-.502.822-.745 1.238z"></path><g><path d="M26.096 12.47c.985-.974 2.451.509 1.436 1.507l-4.12 4.078 2.235 9.204-1.523 1.505-3.789-7.614-3.082 3.049.273 2.358-1.204 1.191-1.391-2.681-2.665-1.418 1.206-1.193 2.341.286 3.082-3.05-7.574-3.873 1.524-1.507 9.1 2.26 4.151-4.102z"></path></g></g></switch></g><!----></svg>